<?xml version="1.0" encoding="utf-8"?>
<!-- Generator: Adobe Illustrator 16.1.0, SVG Export Plug-In . SVG Version: 6.00 Build 0)  -->
<!DOCTYPE svg PUBLIC "-//W3C//DTD SVG 1.1 Tiny//EN" "http://www.w3.org/Graphics/SVG/1.1/DTD/svg11-tiny.dtd" [
	<!ENTITY ns_extend "http://ns.adobe.com/Extensibility/1.0/">
	<!ENTITY ns_ai "http://ns.adobe.com/AdobeIllustrator/10.0/">
	<!ENTITY ns_graphs "http://ns.adobe.com/Graphs/1.0/">
	<!ENTITY ns_vars "http://ns.adobe.com/Variables/1.0/">
	<!ENTITY ns_imrep "http://ns.adobe.com/ImageReplacement/1.0/">
	<!ENTITY ns_sfw "http://ns.adobe.com/SaveForWeb/1.0/">
	<!ENTITY ns_custom "http://ns.adobe.com/GenericCustomNamespace/1.0/">
	<!ENTITY ns_adobe_xpath "http://ns.adobe.com/XPath/1.0/">
]>
<svg version="1.1" baseProfile="tiny" id="Layer_1" xmlns:x="&ns_extend;" xmlns:i="&ns_ai;" xmlns:graph="&ns_graphs;"
	 xmlns="http://www.w3.org/2000/svg" xmlns:xlink="http://www.w3.org/1999/xlink" x="0px" y="0px" width="185.482px"
	 height="50.494px" viewBox="0 0 185.482 50.494" xml:space="preserve">
<metadata>
	<sfw  xmlns="&ns_sfw;">
		<slices></slices>
		<sliceSourceBounds  height="50.493" width="185.482" x="-69.241" y="-0.746" bottomLeftOrigin="true"></sliceSourceBounds>
	</sfw>
</metadata>
<g>
	<path fill="#6D4887" d="M12.314,38.802c-1.807,0-3.533-0.214-5.419-0.808c-1.728-0.544-3.039,0.208-3.039,1.284v10.029
		c0,0.756-0.66,1.186-1.808,1.186h-0.25C0.654,50.494,0,50.065,0,49.31V21.332c0-4.46,4.923-8.438,12.314-8.438
		c7.386,0,12.309,3.978,12.309,8.438v9.028C24.623,34.819,19.7,38.802,12.314,38.802z M20.767,21.332c0-3.062-3.124-6.07-8.453-6.07
		c-5.341,0-8.458,3.007-8.458,6.07v9.028c0,3.064,3.117,6.07,8.458,6.07c5.329,0,8.453-3.006,8.453-6.07V21.332z"/>
	<path fill="#6D4887" d="M51.678,38.257h-0.247c-1.152,0-1.813-0.43-1.813-1.18V21.332c0-3.062-3.113-6.07-8.447-6.07
		c-5.337,0-8.463,3.007-8.463,6.07v15.746c0,0.75-0.653,1.18-1.797,1.18H30.66c-1.143,0-1.806-0.43-1.806-1.18V1.33
		c0-0.757,0.663-1.189,1.806-1.189h0.251c1.144,0,1.797,0.432,1.797,1.189v11.082c0,1.074,1.317,1.827,3.039,1.287
		c1.891-0.588,3.618-0.805,5.424-0.805c7.387,0,12.314,3.978,12.314,8.438v15.746C53.484,37.828,52.819,38.257,51.678,38.257z"/>
	<path fill="#6D4887" d="M103.787,16.015c-2.08-0.765-2.683-0.753-4.99-0.753c-5.332,0-8.454,3.007-8.454,6.07v15.746
		c0,0.75-0.653,1.18-1.807,1.18h-0.245c-1.143,0-1.807-0.43-1.807-1.18V21.332c0-4.46,4.925-8.339,12.312-8.438
		c3.087-0.039,4.905,0.221,6.953,1.129c0.827,0.378,1.149,1.077,0.576,1.616C105.75,16.231,104.705,16.35,103.787,16.015z"/>
	<path fill="#6D4887" d="M128.725,26.868h-13.537c-2.301,0-3.618,0.861-3.618,2.361v1.131c0,3.064,3.124,6.07,8.454,6.07
		c4.106,0,6.164-1.664,7.477-2.902c0.565-0.586,1.728-0.75,2.544-0.377c0.814,0.377,1.063,1.078,0.573,1.668
		c-1.477,1.877-5.011,3.982-10.594,3.982c-7.387,0-12.31-3.982-12.31-8.441v-9.028c0-4.46,4.923-8.438,12.31-8.438
		c7.39,0,12.318,3.978,12.318,8.438v3.169C132.343,26.007,131.023,26.868,128.725,26.868z M128.481,21.332
		c0-3.062-3.126-6.07-8.458-6.07c-5.33,0-8.454,3.007-8.454,6.07v1.128c0,1.499,1.317,2.363,3.618,2.363h9.683
		c2.299,0,3.611-0.864,3.611-2.363V21.332L128.481,21.332z"/>
	<path fill="#6D4887" d="M147.723,38.802c-5.418,0-9.441-2.105-11.409-4.195c-0.494-0.541-0.571-1.237,0.329-1.664
		c0.731-0.381,1.806-0.327,2.46,0.269c1.804,1.608,4.842,3.22,8.62,3.22c6.077,0,8.457-2.795,8.457-5.373
		c0-4.615-8.457-4.729-8.457-4.729c-7.227-0.27-11.409-2.846-11.409-6.714c0-3.279,3.855-6.72,11.409-6.72
		c3.286,0,6.481,0.91,8.288,2.099c0.737,0.482,0.737,1.238,0,1.662c-0.732,0.43-1.726,0.43-2.787-0.106
		c-1.476-0.803-3.202-1.345-5.501-1.345c-6.15,0-7.711,2.954-7.711,4.41c0,4.033,7.627,4.408,7.627,4.408
		c6.565,0.265,12.398,2.147,12.398,7.037C160.038,35.462,155.437,38.802,147.723,38.802z"/>
	<path fill="#6D4887" d="M183.084,38.329c-1.183,0.281-2.585,0.475-4.21,0.475c-7.388,0-12.318-3.984-12.318-8.443V18.198
		c0-1.502-1.31-2.363-3.607-2.363h-1.23c-1.146,0-1.812-0.792-1.812-1.381c0-0.596,0.665-1.512,1.812-1.512h1.23
		c2.299,0,3.607-0.854,3.607-2.356V1.365c0-0.743,0.658-1.176,1.808-1.176h0.251c1.148,0,1.807,0.433,1.807,1.176v9.221
		c0,1.502,1.312,2.356,3.612,2.356h5.241c1.146,0,1.8,0.917,1.8,1.512c0,0.588-0.654,1.381-1.8,1.381h-5.241
		c-2.301,0-3.612,0.86-3.612,2.363V30.36c0,3.064,3.116,6.07,8.454,6.07c1.096,0,2.026-0.152,2.839-0.32
		C184.473,35.538,184.711,37.94,183.084,38.329z"/>
	<path fill="#6D4887" d="M69.893,13.056c-7.78,0-12.321,3.631-12.321,7.327V31.28c0,3.695,4.541,7.324,12.321,7.324
		c7.765,0,12.302-3.629,12.302-7.324V20.383C82.194,16.687,77.657,13.056,69.893,13.056z M77.826,30.278
		c0,3.013-2.928,5.977-7.937,5.977c-5.018,0-7.947-2.964-7.947-5.977v-8.891c0-3.015,2.93-5.976,7.947-5.976
		c5.009,0,7.937,2.96,7.937,5.976V30.278z"/>
	<g>
		<path fill="#6D4887" d="M180.723,0.452V0h-3.127v0.452h1.316v4.016h0.498V0.452H180.723z"/>
		<path fill="#6D4887" d="M185.004,4.468V1.441V0.963c-0.048,0.173-0.174,0.503-0.27,0.739l-1.195,2.882l-1.174-2.882
			c-0.096-0.228-0.217-0.566-0.263-0.739v0.478v3.027h-0.478V0h0.556l1.055,2.674c0.109,0.268,0.269,0.683,0.319,0.87
			c0.06-0.193,0.218-0.608,0.317-0.87L184.938,0h0.544v4.468H185.004z"/>
	</g>
</g>
</svg>
